HIERARCHY
ROOT hips
{
  OFFSET 0 10.680822821525009 1.3929502295107734
  CHANNELS 6 Xposition Yposition Zposition Yrotation Xrotation Zrotation
  JOINT spine
  {
    OFFSET -7.042017322922631e-31 0.6058489940359625 0
    CHANNELS 3 Yrotation Xrotation Zrotation
    JOINT chest
    {
      OFFSET 0 1.2699794144455032 0
      CHANNELS 3 Yrotation Xrotation Zrotation
      JOINT upperChest
      {
        OFFSET 0 1.217799211677689 0
        CHANNELS 3 Yrotation Xrotation Zrotation
        JOINT neck
        {
          OFFSET 0 1.5248826104153006 0
          CHANNELS 3 Yrotation Xrotation Zrotation
          JOINT head
          {
            OFFSET 0 0.8197772727844447 0
            CHANNELS 3 Yrotation Xrotation Zrotation
            JOINT leftEye
            {
              OFFSET 0.2793952361220866 0.6769952096623495 0.1830357412467788
              CHANNELS 3 Yrotation Xrotation Zrotation
              End Site
              {
                OFFSET 0.2793952361220866 0.6769952096623495 0.1830357412467788
              }
            }
            JOINT rightEye
            {
              OFFSET -0.27939522230689573 0.676995205357064 0.18303631459760622
              CHANNELS 3 Yrotation Xrotation Zrotation
              End Site
              {
                OFFSET -0.27939522230689573 0.676995205357064 0.18303631459760622
              }
            }
          }
        }
        JOINT leftShoulder
        {
          OFFSET 0.41486978509200423 1.1670505408695453 0
          CHANNELS 3 Yrotation Xrotation Zrotation
          JOINT leftUpperArm
          {
            OFFSET 0.9737926108153417 0 0
            CHANNELS 3 Yrotation Xrotation Zrotation
            JOINT leftLowerArm
            {
              OFFSET 2.5269332222665284 0 0
              CHANNELS 3 Yrotation Xrotation Zrotation
              JOINT leftHand
              {
                OFFSET 2.4263782738425914 0 0
                CHANNELS 3 Yrotation Xrotation Zrotation
                JOINT leftIndexProximal
                {
                  OFFSET 0.724320348022514 0.08170607082582437 0.20360061616140124
                  CHANNELS 3 Yrotation Xrotation Zrotation
                  JOINT leftIndexIntermediate
                  {
                    OFFSET 0.36548960630744587 -0.010566596513783999 -0.01414783573280308
                    CHANNELS 3 Yrotation Xrotation Zrotation
                    JOINT leftIndexDistal
                    {
                      OFFSET 0.22502819650693362 -0.007863819831430696 -0.007567681939621526
                      CHANNELS 3 Yrotation Xrotation Zrotation
                      End Site
                      {
                        OFFSET 0.22502819650693362 -0.007863819831430696 -0.007567681939621526
                      }
                    }
                  }
                }
                JOINT leftLittleProximal
                {
                  OFFSET 0.6720322998298205 0.08170601055037707 -0.3230036039466837
                  CHANNELS 3 Yrotation Xrotation Zrotation
                  JOINT leftLittleIntermediate
                  {
                    OFFSET 0.34583592281688713 5.476543019078406e-8 1.3869203337180114e-7
                    CHANNELS 3 Yrotation Xrotation Zrotation
                    JOINT leftLittleDistal
                    {
                      OFFSET 0.19925728062053938 0.003098047439490381 0.0038303983709246925
                      CHANNELS 3 Yrotation Xrotation Zrotation
                      End Site
                      {
                        OFFSET 0.19925728062053938 0.003098047439490381 0.0038303983709246925
                      }
                    }
                  }
                }
                JOINT leftMiddleProximal
                {
                  OFFSET 0.7300436596551069 0.0817073395107144 0.022661722987926763
                  CHANNELS 3 Yrotation Xrotation Zrotation
                  JOINT leftMiddleIntermediate
                  {
                    OFFSET 0.40758254347686607 -0.0000012383587111308714 2.408460318820138e-7
                    CHANNELS 3 Yrotation Xrotation Zrotation
                    JOINT leftMiddleDistal
                    {
                      OFFSET 0.2514490105498507 0.0000013869132886590307 9.738618134136345e-8
                      CHANNELS 3 Yrotation Xrotation Zrotation
                      End Site
                      {
                        OFFSET 0.2514490105498507 0.0000013869132886590307 9.738618134136345e-8
                      }
                    }
                  }
                }
                JOINT leftRingProximal
                {
                  OFFSET 0.7217261161191838 0.08170601902187746 -0.15043395722184966
                  CHANNELS 3 Yrotation Xrotation Zrotation
                  JOINT leftRingIntermediate
                  {
                    OFFSET 0.37808807487521556 0.0000013754022405443322 2.2046919317952884e-7
                    CHANNELS 3 Yrotation Xrotation Zrotation
                    JOINT leftRingDistal
                    {
                      OFFSET 0.21812105442344254 -0.002713483731960231 -0.004991354517454624
                      CHANNELS 3 Yrotation Xrotation Zrotation
                      End Site
                      {
                        OFFSET 0.21812105442344254 -0.002713483731960231 -0.004991354517454624
                      }
                    }
                  }
                }
                JOINT leftThumbProximal
                {
                  OFFSET 0.10793587079521427 -0.1652791240518252 -0.07775251827190094
                  CHANNELS 3 Yrotation Xrotation Zrotation
                  JOINT leftThumbIntermediate
                  {
                    OFFSET 0.40355819082296684 -0.017484006740276614 0.3177776014416309
                    CHANNELS 3 Yrotation Xrotation Zrotation
                    JOINT leftThumbDistal
                    {
                      OFFSET 0.2318764658022603 -0.018510186824293617 0.21396001800186287
                      CHANNELS 3 Yrotation Xrotation Zrotation
                      End Site
                      {
                        OFFSET 0.2318764658022603 -0.018510186824293617 0.21396001800186287
                      }
                    }
                  }
                }
              }
            }
          }
        }
        JOINT rightShoulder
        {
          OFFSET -0.4148697850920044 1.1670505408695453 0
          CHANNELS 3 Yrotation Xrotation Zrotation
          JOINT rightUpperArm
          {
            OFFSET -0.9737926108153414 0 0
            CHANNELS 3 Yrotation Xrotation Zrotation
            JOINT rightLowerArm
            {
              OFFSET -2.5269332222665293 0 0
              CHANNELS 3 Yrotation Xrotation Zrotation
              JOINT rightHand
              {
                OFFSET -2.42637827384259 0 0
                CHANNELS 3 Yrotation Xrotation Zrotation
                JOINT rightIndexProximal
                {
                  OFFSET -0.724320348022514 0.08170607082582437 0.20360061616140124
                  CHANNELS 3 Yrotation Xrotation Zrotation
                  JOINT rightIndexIntermediate
                  {
                    OFFSET -0.36548960630744587 -0.010566596513783999 -0.01414783573280308
                    CHANNELS 3 Yrotation Xrotation Zrotation
                    JOINT rightIndexDistal
                    {
                      OFFSET -0.22502819650693362 -0.007863819831430696 -0.007567681939621526
                      CHANNELS 3 Yrotation Xrotation Zrotation
                      End Site
                      {
                        OFFSET -0.22502819650693362 -0.007863819831430696 -0.007567681939621526
                      }
                    }
                  }
                }
                JOINT rightLittleProximal
                {
                  OFFSET -0.6720322998298205 0.08170601055037707 -0.3230036039466837
                  CHANNELS 3 Yrotation Xrotation Zrotation
                  JOINT rightLittleIntermediate
                  {
                    OFFSET -0.34583592281688713 5.476543019078406e-8 1.3869203337180114e-7
                    CHANNELS 3 Yrotation Xrotation Zrotation
                    JOINT rightLittleDistal
                    {
                      OFFSET -0.19925728062053938 0.003098047439490381 0.0038303983709246925
                      CHANNELS 3 Yrotation Xrotation Zrotation
                      End Site
                      {
                        OFFSET -0.19925728062053938 0.003098047439490381 0.0038303983709246925
                      }
                    }
                  }
                }
                JOINT rightMiddleProximal
                {
                  OFFSET -0.7300436596551069 0.0817073395107144 0.022661722987926763
                  CHANNELS 3 Yrotation Xrotation Zrotation
                  JOINT rightMiddleIntermediate
                  {
                    OFFSET -0.40758254347686607 -0.0000012383587111308714 2.408460318820138e-7
                    CHANNELS 3 Yrotation Xrotation Zrotation
                    JOINT rightMiddleDistal
                    {
                      OFFSET -0.2514490105498507 0.0000013869132886590307 9.738618134136345e-8
                      CHANNELS 3 Yrotation Xrotation Zrotation
                      End Site
                      {
                        OFFSET -0.2514490105498507 0.0000013869132886590307 9.738618134136345e-8
                      }
                    }
                  }
                }
                JOINT rightRingProximal
                {
                  OFFSET -0.7217261161191838 0.08170601902187746 -0.15043395722184966
                  CHANNELS 3 Yrotation Xrotation Zrotation
                  JOINT rightRingIntermediate
                  {
                    OFFSET -0.37808807487521556 0.0000013754022405443322 2.2046919317952884e-7
                    CHANNELS 3 Yrotation Xrotation Zrotation
                    JOINT rightRingDistal
                    {
                      OFFSET -0.21812105442344254 -0.002713483731960231 -0.004991354517454624
                      CHANNELS 3 Yrotation Xrotation Zrotation
                      End Site
                      {
                        OFFSET -0.21812105442344254 -0.002713483731960231 -0.004991354517454624
                      }
                    }
                  }
                }
                JOINT rightThumbProximal
                {
                  OFFSET -0.10793587079521427 -0.1652791240518252 -0.07775251827190094
                  CHANNELS 3 Yrotation Xrotation Zrotation
                  JOINT rightThumbIntermediate
                  {
                    OFFSET -0.40355819082296684 -0.017484006740276614 0.3177776014416309
                    CHANNELS 3 Yrotation Xrotation Zrotation
                    JOINT rightThumbDistal
                    {
                      OFFSET -0.2318764658022603 -0.018510186824293617 0.21396001800186287
                      CHANNELS 3 Yrotation Xrotation Zrotation
                      End Site
                      {
                        OFFSET -0.2318764658022603 -0.018510186824293617 0.21396001800186287
                      }
                    }
                  }
                }
              }
            }
          }
        }
      }
    }
  }
  JOINT leftUpperLeg
  {
    OFFSET 0.8486251390888677 -0.4421577294694363 0
    CHANNELS 3 Yrotation Xrotation Zrotation
    JOINT leftLowerLeg
    {
      OFFSET 0 -4.10147812638609 0
      CHANNELS 3 Yrotation Xrotation Zrotation
      JOINT leftFoot
      {
        OFFSET -0.0002543926476658853 -4.77292286812444 0.007402811231737388
        CHANNELS 3 Yrotation Xrotation Zrotation
        JOINT leftToes
        {
          OFFSET 0 -0.7027875951174846 1.2062924140498823
          CHANNELS 3 Yrotation Xrotation Zrotation
          End Site
          {
            OFFSET 0 -0.7027875951174846 1.2062924140498823
          }
        }
      }
    }
  }
  JOINT rightUpperLeg
  {
    OFFSET -0.8486251390888677 -0.4421577294694363 0
    CHANNELS 3 Yrotation Xrotation Zrotation
    JOINT rightLowerLeg
    {
      OFFSET 0 -4.10147812638609 0
      CHANNELS 3 Yrotation Xrotation Zrotation
      JOINT rightFoot
      {
        OFFSET 0.0002543926476658853 -4.77292286812444 0.007402811231737388
        CHANNELS 3 Yrotation Xrotation Zrotation
        JOINT rightToes
        {
          OFFSET 0 -0.7027875951174846 1.2062924140498823
          CHANNELS 3 Yrotation Xrotation Zrotation
          End Site
          {
            OFFSET 0 -0.7027875951174846 1.2062924140498823
          }
        }
      }
    }
  }
}
MOTION
Frames: 4
Frame Time: 0.03333333333333333
-0.035387128591537476 0.11606362256678793 0.07520423084497452 9.591100224285798 1.2377864272456205 -6.818611736323843 0.08692407099894447 -0.06472536762131104 1.126906053508939 -0.36525949817972847 2.034889889537127 2.360327274007937 0 0 0 -0.999980710238428 -0.8565189470073328 0.9067695974464145 -4.179143476907405 -6.398194192451516 1.1007691320218609 0 0 0 0 0 0 -5.502333096708017 2.0034254426517815 -8.492824497356375 -8.030765907837965 -11.596389205549393 -60.30345534808904 -23.145931057717938 -3.0219504548005314 0.9217502906056496 -21.568901949047223 14.425113676430257 7.2808193026199115 -0.005099646671500497 0.00000933178366829293 0.0001723439342601588 0.012001729423554543 -0.000006287968207916863 -0.00018025806786464734 -0.007591613478277832 0.000006543889581139143 0.00009311802334753815 4.294771857666524 -0.018060738017061692 0.4537163588204508 -4.084634637271733 -0.014280608356298508 -0.4570560857929807 -0.00770123917977269 -0.0000016738814519775835 0.00008883464242339052 -0.0053266383183565615 0.000006465293138739313 0.016055952668794896 0.004123872612856187 0.000015754132296167892 -0.01601701758970724 0.002404012100818039 -0.000011674638259976386 -0.00004830243033066573 0.0006998693780137815 0.000009325414823821018 0.00009742944607731142 0.000040591975987464314 0.000015917020663846746 -0.000032286791098374385 -0.000013763203179322083 -0.000018980068454937426 -0.000026778370837998466 4.419822893250967 -1.3347027486983793 6.119701013123849 7.113050483177667 3.5653260699495597 0.948059632199626 0.9579100788696713 -0.8169576336955746 2.369671401949198 -5.010955259104038 0.41491683450796996 9.46983556967187 -19.670755608746965 -14.69800395690047 58.19804531532966 3.4989708516398266 -0.47762950815480704 -0.05977410679452216 9.455508964173477 53.144591628291934 -31.883016241148873 -0.017258454466422487 -0.000007993387531227102 -0.013821277718669134 0.029279908005637467 -4.855385923402297e-7 -0.00024254308046372445 -0.01010511969744002 -2.614662759206292e-7 0.00013990159093454997 0.061118573653077955 0.00000400496178289685 -0.015429537953984033 0.09699853069051036 0.000013090777127676682 -0.0012580809076508236 -0.0568994062356907 -0.000008175254599467933 0.0007389731906778465 -0.05595522643000435 -0.000017197459664840613 -0.013321402448234003 0.09736185754225808 -0.0000011173532862580872 -0.0010155261285398239 -0.03689390529500463 0.0000022594479292722174 0.0004673824473284919 0.019437191336340927 0.00000104618488937241 -0.014395306249332147 -0.025397019256279078 0.000007148703859366249 0.00039837782342366134 -0.012902800753207698 -0.000004871293175030612 0.00017823207509168036 -4.406182871497537 -1.6245018355655803 -6.575602211773809 -7.682429668857156 4.20283299724978 -0.5330711519575395 0.8479126884827204 -1.554828644763507 -1.9643642817799487 -8.096720681662354 -29.111545324703755 1.6560772244123028 16.863636094544017 56.10815436424333 23.465061873445176 3.2419008796943647 21.135636840038977 -0.8014369899587164 8.055399800493593e-7 0.051196713598059405 -0.000004367416156180947 -10.221867837565055 -8.00447146242671 12.03846000258707 -7.6380007816028295 19.139823083323673 0.1086463571457523 -0.955477319066934 13.896342918013122 -10.291799749092434 -0.11412117917090402 -20.47730402512254 3.461697224354299
-0.03476252406835556 0.13698246869715902 0.03990984708070755 8.758086877916847 1.174115491587987 -6.040786373285142 0.3221912304027643 -0.04302752777272918 0.7116249140579938 0.6120442955909252 2.076511034638506 1.571687323781527 0 0 0 -1.037157671335903 -0.7968024681728412 0.7615615091035813 -4.59728868198703 -6.560558704117951 1.3942107638884538 0 0 0 0 0 0 -5.435561087836186 1.9728216463557513 -8.443783209870052 -5.136574072068425 -10.761760596685447 -60.34348327737595 -20.75796852454967 -2.731009606121564 0.7711133572110815 -21.458433784455487 15.698067958494939 7.202805655900116 -0.005099646671500497 0.00000933178366829293 0.0001723439342601588 0.012001729423554543 -0.000006287968207916863 -0.00018025806786464734 -0.007591613478277832 0.000006543889581139143 0.00009311802334753815 4.294771857666524 -0.018060738017061692 0.4537163588204508 -4.084634637271733 -0.014280608356298508 -0.4570560857929807 -0.00770123917977269 -0.0000016738814519775835 0.00008883464242339052 -0.0053266383183565615 0.000006465293138739313 0.016055952668794896 0.004123872612856187 0.000015754132296167892 -0.01601701758970724 0.002404012100818039 -0.000011674638259976386 -0.00004830243033066573 0.0006998693780137815 0.000009325414823821018 0.00009742944607731142 0.000040591975987464314 0.000015917020663846746 -0.000032286791098374385 -0.000013763203179322083 -0.000018980068454937426 -0.000026778370837998466 4.419822893250967 -1.3347027486983793 6.119701013123849 7.113050483177667 3.5653260699495597 0.948059632199626 0.9579100788696713 -0.8169576336955746 2.369671401949198 -4.818246805579891 0.4384867635795398 9.332261150020258 -17.54783032502858 -16.27699104253351 58.13176492100552 3.8301150607556393 -0.5226213058568888 -0.06693326255234122 12.24566278791436 53.465163171838505 -31.170873396437866 -0.015759833290961898 -0.000005110268960021053 -0.027616713798920303 0.029279908005637467 -4.855385923402297e-7 -0.00024254308046372445 -0.01010511969744002 -2.614662759206292e-7 0.00013990159093454997 0.0626285381865737 0.00003032681218813912 -0.029231339631219908 0.09699853069051036 0.000013090777127676682 -0.0012580809076508236 -0.0568994062356907 -0.000008175254599467933 0.0007389731906778465 -0.054456600893561365 -0.000023625301034317406 -0.02711683605360196 0.09736185754225808 -0.0000011173532862580872 -0.0010155261285398239 -0.03689390529500463 0.0000022594479292722174 0.0004673824473284919 0.020935805780093075 0.000012760670359731194 -0.028190733101009776 -0.025397019256279078 0.000007148703859366249 0.00039837782342366134 -0.012902800753207698 -0.000004871293175030612 0.00017823207509168036 -4.38987371604644 -1.6271125524148626 -6.587672474591742 -7.682429668857156 4.20283299724978 -0.5330711519575395 0.8479126884827204 -1.554828644763507 -1.9643642817799487 -7.8175178018017535 -29.673812799479137 0.7654304849324663 15.482716357593926 53.35963089427687 21.637276825262145 2.944694725101537 20.630277818793207 -1.0141417824867036 0.00001019729902160514 -1.0142311515712927 -0.000007387726266428634 -10.46762578298299 -6.526324338182151 11.194321368472375 -6.258183186606563 18.086604199364714 0.5024914678735575 -0.8428971516232477 13.586017912506245 -10.194189431360828 -0.15423842171636665 -20.47717096635228 3.3516571214709923
-0.029690688475966454 0.17547943982753011 -0.024246584624052048 6.917650277333796 0.9467598101402473 -4.294787014695869 0.8117949805811226 0.02412432391030629 -0.2605996119890615 2.682284134813214 2.218983461833868 0.19228178219402167 0 0 0 -1.0930964857524272 -0.6957032916401219 0.4022203156088945 -5.41869112307402 -6.978001542629706 1.9439648378208652 0 0 0 0 0 0 -5.325281225394399 1.9210451747984236 -8.349932614144263 0.9227673497933787 -9.103320100591214 -60.44007493782195 -16.566430987435627 -2.2057114762039016 0.536457266757464 -20.924512918034427 18.404129747707177 7.114608878763785 -0.005099646671500497 0.00000933178366829293 0.0001723439342601588 0.012001729423554543 -0.000006287968207916863 -0.00018025806786464734 -0.007591613478277832 0.000006543889581139143 0.00009311802334753815 4.294771857666524 -0.018060738017061692 0.4537163588204508 -4.084634637271733 -0.014280608356298508 -0.4570560857929807 -0.00770123917977269 -0.0000016738814519775835 0.00008883464242339052 -0.0053266383183565615 0.000006465293138739313 0.016055952668794896 0.004123872612856187 0.000015754132296167892 -0.01601701758970724 0.002404012100818039 -0.000011674638259976386 -0.00004830243033066573 0.0006998693780137815 0.000009325414823821018 0.00009742944607731142 0.000040591975987464314 0.000015917020663846746 -0.000032286791098374385 -0.000013763203179322083 -0.000018980068454937426 -0.000026778370837998466 4.419822893250967 -1.3347027486983793 6.119701013123849 7.113050483177667 3.5653260699495597 0.948059632199626 0.9579100788696713 -0.8169576336955746 2.369671401949198 -4.5569934560660394 0.46848997663437275 9.022733666791025 -13.143906784791469 -19.55313028066931 57.73147849324714 4.733258521789312 -0.6451069077771041 -0.08779667482747744 18.390843139035592 54.01297678937825 -29.44671148895873 -0.012214782624365494 -0.00001758812663658717 -0.06015824864137288 0.029279908005637467 -4.855385923402297e-7 -0.00024254308046372445 -0.01010511969744002 -2.614662759206292e-7 0.00013990159093454997 0.0661678650884192 0.00005847002427950189 -0.06176798821320892 0.09699853069051036 0.000013090777127676682 -0.0012580809076508236 -0.0568994062356907 -0.000008175254599467933 0.0007389731906778465 -0.05091153088462658 -0.000058066411177979715 -0.0596583511096413 0.09736185754225808 -0.0000011173532862580872 -0.0010155261285398239 -0.03689390529500463 0.0000022594479292722174 0.0004673824473284919 0.02448084682705686 0.000021114797318929987 -0.06073227101529944 -0.025397019256279078 0.000007148703859366249 0.00039837782342366134 -0.012902800753207698 -0.000004871293175030612 0.00017823207509168036 -4.351484285501893 -1.6334278042982673 -6.616108989557987 -7.682429668857156 4.20283299724978 -0.5330711519575395 0.8479126884827204 -1.554828644763507 -1.9643642817799487 -6.707210557591696 -30.061449501944733 -1.2762656433778026 12.865767980848107 46.532478542931386 17.94806498485712 2.263695202766315 20.193521162699984 -1.4180799143436973 -0.004336960573300405 -2.9353066322041403 -0.535348066249879 -11.036245021533752 -3.5281746682712587 9.141003768099424 -3.2723882273513976 15.98024267429161 1.2153677943100936 -0.6525289072967521 12.954197724567432 -9.958815783602404 -0.17712639406653266 -20.382711909793677 3.1536616752282085
-0.012351117096841335 0.20147183332118246 -0.11362748593091965 4.579544034222127 0.5192356332500058 -2.2395563205537705 1.3726026917652097 0.1652720107468184 -1.6172367685120728 5.073911518745578 2.5086563247410267 -0.5524202523452452 0 0 0 -1.1061006537542986 -0.6469567259681628 -0.12390166543664283 -6.208056477856213 -7.633559029658832 2.461040218000708 0 0 0 0 0 0 -5.2813388176670335 1.9026858648502731 -8.266270620200283 7.508051899860303 -7.431062954705915 -60.396612207167436 -13.935603385763118 -1.867513125975324 0.40909297177520115 -19.689013875857672 21.51948340225211 7.077737142542405 -0.005099646671500497 0.00000933178366829293 0.0001723439342601588 0.012001729423554543 -0.000006287968207916863 -0.00018025806786464734 -0.007591613478277832 0.000006543889581139143 0.00009311802334753815 4.294771857666524 -0.018060738017061692 0.4537163588204508 -4.084634637271733 -0.014280608356298508 -0.4570560857929807 -0.00770123917977269 -0.0000016738814519775835 0.00008883464242339052 -0.0053266383183565615 0.000006465293138739313 0.016055952668794896 0.004123872612856187 0.000015754132296167892 -0.01601701758970724 0.002404012100818039 -0.000011674638259976386 -0.00004830243033066573 0.0006998693780137815 0.000009325414823821018 0.00009742944607731142 0.000040591975987464314 0.000015917020663846746 -0.000032286791098374385 -0.000013763203179322083 -0.000018980068454937426 -0.000026778370837998466 4.419822893250967 -1.3347027486983793 6.119701013123849 7.113050483177667 3.5653260699495597 0.948059632199626 0.9579100788696713 -0.8169576336955746 2.369671401949198 -4.578025171481157 0.4494637674334799 8.610627319576063 -8.471131893190977 -22.93635825728997 56.59126807938786 6.891707840476436 -0.936311091427488 -0.14549284528640993 25.769603127043318 54.257815887750475 -27.11394308043258 -0.007374318917616861 -0.000020958670250726294 -0.10472797568448862 0.029279908005637467 -4.855385923402297e-7 -0.00024254308046372445 -0.01010511969744002 -2.614662759206292e-7 0.00013990159093454997 0.07100851956772582 0.00011959251025144414 -0.1063385165085547 0.09699853069051036 0.000013090777127676682 -0.0012580809076508236 -0.0568994062356907 -0.000008175254599467933 0.0007389731906778465 -0.04607102714004106 -0.00009151840280949502 -0.10422807870231333 0.09736185754225808 -0.0000011173532862580872 -0.0010155261285398239 -0.03689390529500463 0.0000022594479292722174 0.0004673824473284919 0.02932126599579533 0.000046276255171967746 -0.10530200408909643 -0.025397019256279078 0.000007148703859366249 0.00039837782342366134 -0.012902800753207698 -0.000004871293175030612 0.00017823207509168036 -4.298964434428019 -1.6424182990869982 -6.655085983114586 -7.682429668857156 4.20283299724978 -0.5330711519575395 0.8479126884827204 -1.554828644763507 -1.9643642817799487 -4.3901223318716305 -28.503679779587294 -3.6361879096759484 10.237536140283138 36.27114405157331 13.777193540466968 1.4036903732824106 21.28984750209763 -1.8222814299232573 0.004054554118839981 -4.745589437749329 -1.6743884259183652 -11.965392607137037 -1.3271637077456226 6.461411967984792 0.3523148772313888 15.238625359956139 1.850678534707006 -0.49364324512094704 11.846761425074234 -9.59954192562657 -0.15127336057016255 -19.898924084889476 2.9493589466545114
